<?xml version="1.0" encoding="UTF-8"?>
<!DOCTYPE svg PUBLIC "-//W3C//DTD SVG 1.1//EN" "http://www.w3.org/Graphics/SVG/1.1/DTD/svg11.dtd">
<!-- Creator: CorelDRAW X8 -->
<svg xmlns="http://www.w3.org/2000/svg" xml:space="preserve" width="85mm" height="37mm" version="1.1" style="shape-rendering:geometricPrecision; text-rendering:geometricPrecision; image-rendering:optimizeQuality; fill-rule:evenodd; clip-rule:evenodd"
viewBox="0 0 8500 3700"
 xmlns:xlink="http://www.w3.org/1999/xlink">
 <defs>
  <style type="text/css">
   <![CDATA[
    .fil0 {fill:#373435;fill-rule:nonzero}
   ]]>
  </style>
 </defs>
 <g id="Layer_x0020_1">
  <metadata id="CorelCorpID_0Corel-Layer"/>
  <g id="_2096105135008">
   <polygon class="fil0" points="2075,1507 1308,1507 557,1105 557,1507 -3,1507 -3,280 557,280 557,683 1308,280 2075,280 942,894 "/>
   <polygon class="fil0" points="4241,1507 3474,1507 2723,1105 2723,1507 2163,1507 2163,280 2723,280 2723,683 3474,280 4241,280 3108,894 "/>
   <path class="fil0" d="M6111 280l-1131 0c-177,0 -329,38 -456,115 -127,77 -190,170 -190,277l0 444c0,108 63,200 190,277 127,76 279,114 456,114l1131 0 0 -342 -768 0 -2 1c0,0 0,-1 1,-1l-155 0 -2 1 0 -1 -156 0c-19,0 -37,-2 -53,-6 -16,-5 -30,-10 -42,-18 -12,-7 -21,-15 -28,-25 -8,-10 -11,-20 -11,-32l0 -382c0,-22 13,-41 39,-57 26,-15 58,-23 95,-23l1082 0 0 -342z"/>
   <path class="fil0" d="M262 2688l-1 0c-96,0 -164,-72 -164,-168 0,-84 51,-171 167,-171 118,0 165,93 165,168 0,100 -72,171 -167,171zm5 -399c-151,0 -272,86 -272,233 0,139 115,226 262,226l2 0c130,0 272,-71 272,-234 0,-133 -107,-225 -264,-225z"/>
   <path class="fil0" d="M764 2738l0 -378 132 0 0 -61 -133 0 0 -23c0,-67 23,-127 107,-127 29,0 49,4 64,10l13 -62c-19,-6 -49,-13 -85,-13 -45,0 -95,12 -133,41 -46,36 -64,92 -64,153l0 21 -76 0 0 61 76 0 0 378 99 0z"/>
   <path class="fil0" d="M1323 2738l0 -261c0,-102 -1,-175 -7,-252l4 -1c37,66 88,136 141,204l243 310 100 0 0 -611 -93 0 0 257c0,94 2,168 11,250l-3 1c-36,-63 -81,-127 -136,-199l-244 -309 -109 0 0 611 93 0z"/>
   <path class="fil0" d="M2199 2688l-1 0c-96,0 -164,-72 -164,-168 0,-84 51,-171 168,-171 117,0 164,93 164,168 0,100 -71,171 -167,171zm5 -399c-151,0 -272,86 -272,233 0,139 116,226 263,226l1 0c130,0 272,-71 272,-234 0,-133 -107,-225 -264,-225z"/>
   <path class="fil0" d="M2593 2738l100 0 0 -235c0,-12 1,-25 3,-37 14,-59 64,-102 134,-102 13,0 24,1 34,2l0 -75c-9,-1 -17,-2 -27,-2 -67,0 -128,37 -154,96l-3 0 -4 -86 -88 0c4,41 5,86 5,137l0 302z"/>
   <path class="fil0" d="M2929 2299l165 439 91 0 88 -208c19,-48 36,-94 50,-146l2 0c14,51 30,95 49,145l84 209 90 0 177 -439 -98 0 -79 221c-18,51 -32,97 -41,142l-4 0c-12,-45 -28,-92 -48,-143l-86 -220 -83 0 -90 223c-18,48 -36,95 -49,140l-3 0c-10,-45 -25,-92 -40,-141l-73 -222 -102 0z"/>
   <path class="fil0" d="M4109 2590c0,8 -2,17 -5,26 -16,37 -62,73 -135,73 -50,0 -93,-23 -93,-76 0,-85 124,-101 233,-99l0 76zm97 43l0 -164c0,-88 -41,-180 -210,-180 -69,0 -136,16 -181,38l23 54c38,-21 92,-33 144,-33 112,-1 124,65 124,102l0 9c-212,-1 -329,57 -329,163 0,63 56,126 167,126 79,0 139,-31 168,-65l4 0 8 55 90 0c-6,-30 -8,-67 -8,-105z"/>
   <path class="fil0" d="M4283 2299l202 405c6,10 8,16 8,20 0,5 -3,11 -8,20 -24,40 -56,71 -84,88 -29,20 -62,33 -87,39l25 67c25,-4 73,-18 122,-51 68,-48 117,-124 189,-275l149 -313 -105 0 -109 258c-14,31 -25,65 -35,91l-3 0c-8,-26 -22,-60 -36,-89l-119 -260 -109 0z"/>
   <path class="fil0" d="M6744 3388l0 -899 0 0 -63 -221 -1 -405 401 0 221 64 0 0 892 0c-35,789 -666,1424 -1450,1461zm1772 -1461l0 -141 -180 0c-37,-866 -731,-1563 -1593,-1599l0 -184 -141 0 0 184c0,0 0,0 0,0l0 142 0 0 0 888 64 222 1 411 -442 1 -220 -64 0 15 0 -15 -6008 0 0 141 5015 0c35,867 729,1565 1591,1602l0 173 141 0 0 -173c863,-37 1557,-736 1592,-1603l180 0zm-1913 561l0 900c-783,-37 -1414,-672 -1449,-1460l850 0 0 0 221 -64 442 -1 1 404 -65 221 0 0zm76 -1050l64 -220 0 -889c783,36 1414,669 1451,1457l-892 0 -220 63 -402 1 -1 -412z"/>
   <path class="fil0" d="M8153 280l55 0c26,0 44,-4 53,-11 10,-8 14,-18 14,-31 0,-9 -2,-16 -6,-22 -5,-7 -11,-12 -19,-15 -9,-3 -24,-5 -46,-5l-51 0 0 84zm-45 158l0 -280 96 0c33,0 56,3 71,8 15,5 27,14 35,27 9,13 13,26 13,41 0,20 -7,38 -22,53 -14,15 -33,24 -58,26 10,4 18,9 24,15 11,11 25,29 42,55l34 55 -55 0 -25 -44c-20,-35 -35,-57 -47,-65 -9,-7 -21,-10 -37,-10l-26 0 0 119 -45 0zm114 -361c-37,0 -72,10 -107,28 -34,19 -61,46 -81,81 -19,34 -29,71 -29,108 0,38 10,73 29,108 19,34 46,61 80,80 35,19 70,29 108,29 37,0 73,-10 108,-29 34,-19 61,-46 80,-80 19,-35 28,-70 28,-108 0,-37 -9,-74 -29,-108 -19,-35 -46,-62 -81,-81 -35,-18 -70,-28 -106,-28zm0 -43c43,0 86,12 127,34 42,22 74,54 98,96 23,42 34,85 34,130 0,45 -11,88 -34,129 -23,41 -55,74 -96,96 -41,23 -84,35 -129,35 -45,0 -88,-12 -129,-35 -42,-22 -74,-55 -97,-96 -22,-41 -34,-84 -34,-129 0,-45 12,-88 35,-130 23,-42 56,-74 97,-96 42,-22 84,-34 128,-34z"/>
  </g>
 </g>
</svg>
